<svg aria-roledescription="sankey" role="graphics-document document" viewBox="0 -12.829059600830078 700 612.8290405273438" style="max-width: 700px; background-color: white;" xmlns:xlink="http://www.w3.org/1999/xlink" xmlns="http://www.w3.org/2000/svg" width="100%" id="my-svg"><style>#my-svg{font-family:"trebuchet ms",verdana,arial,sans-serif;font-size:16px;fill:#333;}#my-svg .error-icon{fill:#552222;}#my-svg .error-text{fill:#552222;stroke:#552222;}#my-svg .edge-thickness-normal{stroke-width:1px;}#my-svg .edge-thickness-thick{stroke-width:3.5px;}#my-svg .edge-pattern-solid{stroke-dasharray:0;}#my-svg .edge-thickness-invisible{stroke-width:0;fill:none;}#my-svg .edge-pattern-dashed{stroke-dasharray:3;}#my-svg .edge-pattern-dotted{stroke-dasharray:2;}#my-svg .marker{fill:#333333;stroke:#333333;}#my-svg .marker.cross{stroke:#333333;}#my-svg svg{font-family:"trebuchet ms",verdana,arial,sans-serif;font-size:16px;}#my-svg p{margin:0;}#my-svg :root{--mermaid-font-family:"trebuchet ms",verdana,arial,sans-serif;}</style><g/><g class="nodes"><g y="0" x="0" transform="translate(0,0)" id="node-1" class="node"><rect fill="#4e79a7" width="10" height="0.34188034188034067"/></g><g y="0" x="172.5" transform="translate(172.5,0)" id="node-2" class="node"><rect fill="#f28e2c" width="10" height="169.23076923076917"/></g><g y="25.34188034188034" x="0" transform="translate(0,25.34188034188034)" id="node-3" class="node"><rect fill="#e15759" width="10" height="4.444444444444436"/></g><g y="54.786324786324776" x="0" transform="translate(0,54.786324786324776)" id="node-4" class="node"><rect fill="#76b7b2" width="10" height="0.3418803418803691"/></g><g y="80.12820512820514" x="0" transform="translate(0,80.12820512820514)" id="node-5" class="node"><rect fill="#59a14f" width="10" height="164.10256410256412"/></g><g y="2.264786888257518" x="345" transform="translate(345,2.264786888257518)" id="node-6" class="node"><rect fill="#edc949" width="10" height="182.22222222222229"/></g><g y="210.34188034188028" x="517.5" transform="translate(517.5,210.34188034188028)" id="node-7" class="node"><rect fill="#af7aa1" width="10" height="14.017094017094053"/></g><g y="184.25890474225332" x="690" transform="translate(690,184.25890474225332)" id="node-8" class="node"><rect fill="#ff9da7" width="10" height="0.3418803418803691"/></g><g y="209.6007850820671" x="690" transform="translate(690,209.6007850820671)" id="node-9" class="node"><rect fill="#9c755f" width="10" height="0.34188034188034067"/></g><g y="234.9426656487285" x="690" transform="translate(690,234.9426656487285)" id="node-10" class="node"><rect fill="#bab0ab" width="10" height="13.333333333333343"/></g><g y="0" x="517.5" transform="translate(517.5,0)" id="node-11" class="node"><rect fill="#4e79a7" width="10" height="132.30769230769226"/></g><g y="157.30769230769226" x="517.5" transform="translate(517.5,157.30769230769226)" id="node-12" class="node"><rect fill="#f28e2c" width="10" height="28.03418803418802"/></g><g y="249.35897435897434" x="517.5" transform="translate(517.5,249.35897435897434)" id="node-13" class="node"><rect fill="#e15759" width="10" height="3.0769230769231513"/></g><g y="277.43589743589746" x="517.5" transform="translate(517.5,277.43589743589746)" id="node-14" class="node"><rect fill="#76b7b2" width="10" height="4.786324786324769"/></g><g y="194.23076923076917" x="172.5" transform="translate(172.5,194.23076923076917)" id="node-15" class="node"><rect fill="#59a14f" width="10" height="12.991452991453002"/></g><g y="269.2307692307693" x="0" transform="translate(0,269.2307692307693)" id="node-16" class="node"><rect fill="#edc949" width="10" height="0.3418803418803691"/></g><g y="389.52991452991444" x="172.5" transform="translate(172.5,389.52991452991444)" id="node-17" class="node"><rect fill="#af7aa1" width="10" height="29.743589743589837"/></g><g y="294.57264957264965" x="0" transform="translate(0,294.57264957264965)" id="node-18" class="node"><rect fill="#ff9da7" width="10" height="1.0256410256409936"/></g><g y="320.59829059829065" x="0" transform="translate(0,320.59829059829065)" id="node-19" class="node"><rect fill="#9c755f" width="10" height="0.3418803418803691"/></g><g y="345.940170940171" x="0" transform="translate(0,345.940170940171)" id="node-20" class="node"><rect fill="#bab0ab" width="10" height="28.034188034188105"/></g><g y="269.15594984472017" x="345" transform="translate(345,269.15594984472017)" id="node-21" class="node"><rect fill="#4e79a7" width="10" height="217.77777777777754"/></g><g y="232.22222222222217" x="172.5" transform="translate(172.5,232.22222222222217)" id="node-22" class="node"><rect fill="#f28e2c" width="10" height="132.30769230769226"/></g><g y="485.96118800197195" x="172.5" transform="translate(172.5,485.96118800197195)" id="node-23" class="node"><rect fill="#e15759" width="10" height="13.333333333333258"/></g><g y="524.2945213353053" x="172.5" transform="translate(172.5,524.2945213353053)" id="node-24" class="node"><rect fill="#76b7b2" width="10" height="24.95726495726467"/></g><g y="544.5726495726498" x="517.5" transform="translate(517.5,544.5726495726498)" id="node-25" class="node"><rect fill="#59a14f" width="10" height="3.0769230769230944"/></g><g y="517.5197610016473" x="690" transform="translate(690,517.5197610016473)" id="node-26" class="node"><rect fill="#edc949" width="10" height="0.3418803418803691"/></g><g y="542.8616413435277" x="690" transform="translate(690,542.8616413435277)" id="node-27" class="node"><rect fill="#af7aa1" width="10" height="0.3418803418802554"/></g><g y="568.2035217751817" x="690" transform="translate(690,568.2035217751817)" id="node-28" class="node"><rect fill="#ff9da7" width="10" height="2.39316239316247"/></g><g y="307.22222222222223" x="517.5" transform="translate(517.5,307.22222222222223)" id="node-29" class="node"><rect fill="#9c755f" width="10" height="93.33333333333343"/></g><g y="425.55555555555566" x="517.5" transform="translate(517.5,425.55555555555566)" id="node-30" class="node"><rect fill="#bab0ab" width="10" height="94.01709401709411"/></g><g y="572.6495726495729" x="517.5" transform="translate(517.5,572.6495726495729)" id="node-31" class="node"><rect fill="#4e79a7" width="10" height="27.350427350427367"/></g><g y="574.2517862925699" x="172.5" transform="translate(172.5,574.2517862925699)" id="node-32" class="node"><rect fill="#f28e2c" width="10" height="17.77777777777783"/></g></g><g font-size="14" font-family="sans-serif" class="node-labels"><text text-anchor="start" dy="0em" y="0.17094017094017033" x="16">Condensation_g:
5</text><text text-anchor="start" dy="0em" y="84.61538461538458" x="188.5">SMB input_g:
2475</text><text text-anchor="start" dy="0em" y="27.56410256410256" x="16">Deposition_g:
65</text><text text-anchor="start" dy="0em" y="54.95726495726496" x="16">Rainfall_g:
5</text><text text-anchor="start" dy="0em" y="162.17948717948718" x="16">Snowfall_g:
2400</text><text text-anchor="start" dy="0em" y="93.37589799936865" x="361">NET_g:
2665</text><text text-anchor="end" dy="0em" y="217.3504273504273" x="511.5">SMB output_g:
205</text><text text-anchor="end" dy="0em" y="184.4298449131935" x="684">Runoff_g:
5</text><text text-anchor="end" dy="0em" y="209.77172525300728" x="684">Evap_g:
5</text><text text-anchor="end" dy="0em" y="241.6093323153952" x="684">Sublimation_g:
195</text><text text-anchor="end" dy="0em" y="66.15384615384613" x="511.5">Discharge to shelf_g:
1935</text><text text-anchor="end" dy="0em" y="171.32478632478626" x="511.5">Calving (non-shelf)_g:
410</text><text text-anchor="end" dy="0em" y="250.8974358974359" x="511.5">Grounding line retreat:
45</text><text text-anchor="end" dy="0em" y="279.8290598290598" x="511.5">Grounded basal loss_g:
70</text><text text-anchor="start" dy="0em" y="200.72649572649567" x="188.5">Mass loss (grounded)_g:
190</text><text text-anchor="start" dy="0em" y="269.40170940170947" x="16">Condensation:
5</text><text text-anchor="start" dy="0em" y="404.40170940170935" x="188.5">SMB input:
435</text><text text-anchor="start" dy="0em" y="295.08547008547015" x="16">Deposition:
15</text><text text-anchor="start" dy="0em" y="320.76923076923083" x="16">Rainfall:
5</text><text text-anchor="start" dy="0em" y="359.95726495726507" x="16">Snowfall:
410</text><text text-anchor="start" dy="0em" y="378.0448387336089" x="361">NET:
3185</text><text text-anchor="start" dy="0em" y="298.3760683760683" x="188.5">Discharge to shelf:
1935</text><text text-anchor="start" dy="0em" y="492.6278546686386" x="188.5">Frontal advance:
195</text><text text-anchor="start" dy="0em" y="536.7731538139376" x="188.5">Sub-shelf freeze-on:
365</text><text text-anchor="end" dy="0em" y="546.1111111111113" x="511.5">SMB output:
45</text><text text-anchor="end" dy="0em" y="517.6907011725875" x="684">Runoff:
5</text><text text-anchor="end" dy="0em" y="543.0325815144679" x="684">Evap:
5</text><text text-anchor="end" dy="0em" y="569.4001029717629" x="684">Sublimation:
35</text><text text-anchor="end" dy="0em" y="353.8888888888889" x="511.5">Calving (shelf):
1365</text><text text-anchor="end" dy="0em" y="472.5641025641027" x="511.5">Sub-shelf melt:
1375</text><text text-anchor="end" dy="0em" y="586.3247863247866" x="511.5">Frontal retreat:
400</text><text text-anchor="start" dy="0em" y="583.1406751814588" x="188.5">Mass loss (shelf):
260</text></g><g stroke-opacity="0.5" fill="none" class="links"><g style="mix-blend-mode: multiply;" class="link"><path stroke-width="1" stroke="#cccccc" d="M10,0.17094017094017094C91.25,0.17094017094017094,91.25,0.17094017094017094,172.5,0.17094017094017094"/></g><g style="mix-blend-mode: multiply;" class="link"><path stroke-width="4.444444444444445" stroke="#cccccc" d="M10,27.564102564102562C91.25,27.564102564102562,91.25,2.5641025641025643,172.5,2.5641025641025643"/></g><g style="mix-blend-mode: multiply;" class="link"><path stroke-width="1" stroke="#cccccc" d="M10,54.95726495726495C91.25,54.95726495726495,91.25,4.957264957264957,172.5,4.957264957264957"/></g><g style="mix-blend-mode: multiply;" class="link"><path stroke-width="164.10256410256412" stroke="#cccccc" d="M10,162.17948717948718C91.25,162.17948717948718,91.25,87.17948717948718,172.5,87.17948717948718"/></g><g style="mix-blend-mode: multiply;" class="link"><path stroke-width="168.8888888888889" stroke="#cccccc" d="M182.5,84.44444444444446C263.75,84.44444444444446,263.75,86.70923133270198,345,86.70923133270198"/></g><g style="mix-blend-mode: multiply;" class="link"><path stroke-width="1" stroke="#cccccc" d="M527.5,210.51282051282047C608.75,210.51282051282047,608.75,184.4298449131935,690,184.4298449131935"/></g><g style="mix-blend-mode: multiply;" class="link"><path stroke-width="1" stroke="#cccccc" d="M527.5,210.8547008547008C608.75,210.8547008547008,608.75,209.77172525300728,690,209.77172525300728"/></g><g style="mix-blend-mode: multiply;" class="link"><path stroke-width="13.333333333333334" stroke="#cccccc" d="M527.5,217.69230769230762C608.75,217.69230769230762,608.75,241.60933231539516,690,241.60933231539516"/></g><g style="mix-blend-mode: multiply;" class="link"><path stroke-width="14.017094017094019" stroke="#cccccc" d="M355,169.61521423868487C436.25,169.61521423868487,436.25,217.35042735042728,517.5,217.35042735042728"/></g><g style="mix-blend-mode: multiply;" class="link"><path stroke-width="132.30769230769232" stroke="#cccccc" d="M355,68.41863304210368C436.25,68.41863304210368,436.25,66.15384615384616,517.5,66.15384615384616"/></g><g style="mix-blend-mode: multiply;" class="link"><path stroke-width="28.034188034188038" stroke="#cccccc" d="M355,148.58957321304385C436.25,148.58957321304385,436.25,171.3247863247863,517.5,171.3247863247863"/></g><g style="mix-blend-mode: multiply;" class="link"><path stroke-width="3.076923076923077" stroke="#cccccc" d="M355,178.16222278569344C436.25,178.16222278569344,436.25,250.89743589743588,517.5,250.89743589743588"/></g><g style="mix-blend-mode: multiply;" class="link"><path stroke-width="4.786324786324787" stroke="#cccccc" d="M355,182.09384671731735C436.25,182.09384671731735,436.25,279.8290598290599,517.5,279.8290598290599"/></g><g style="mix-blend-mode: multiply;" class="link"><path stroke-width="12.991452991452993" stroke="#cccccc" d="M182.5,200.72649572649567C263.75,200.72649572649567,263.75,177.64940227287292,345,177.64940227287292"/></g><g style="mix-blend-mode: multiply;" class="link"><path stroke-width="1" stroke="#cccccc" d="M10,269.40170940170947C91.25,269.40170940170947,91.25,389.7008547008546,172.5,389.7008547008546"/></g><g style="mix-blend-mode: multiply;" class="link"><path stroke-width="1.0256410256410258" stroke="#cccccc" d="M10,295.08547008547015C91.25,295.08547008547015,91.25,390.3846153846153,172.5,390.3846153846153"/></g><g style="mix-blend-mode: multiply;" class="link"><path stroke-width="1" stroke="#cccccc" d="M10,320.76923076923083C91.25,320.76923076923083,91.25,391.06837606837604,172.5,391.06837606837604"/></g><g style="mix-blend-mode: multiply;" class="link"><path stroke-width="28.034188034188038" stroke="#cccccc" d="M10,359.957264957265C91.25,359.957264957265,91.25,405.2564102564102,172.5,405.2564102564102"/></g><g style="mix-blend-mode: multiply;" class="link"><path stroke-width="29.401709401709404" stroke="#cccccc" d="M182.5,404.2307692307691C263.75,404.2307692307691,263.75,416.16449685326717,345,416.16449685326717"/></g><g style="mix-blend-mode: multiply;" class="link"><path stroke-width="132.30769230769232" stroke="#cccccc" d="M182.5,298.37606837606836C263.75,298.37606837606836,263.75,335.3097959985663,345,335.3097959985663"/></g><g style="mix-blend-mode: multiply;" class="link"><path stroke-width="13.333333333333334" stroke="#cccccc" d="M182.5,492.62785466863863C263.75,492.62785466863863,263.75,437.5320182207886,345,437.5320182207886"/></g><g style="mix-blend-mode: multiply;" class="link"><path stroke-width="24.95726495726496" stroke="#cccccc" d="M182.5,536.7731538139377C263.75,536.7731538139377,263.75,456.6773173660877,345,456.6773173660877"/></g><g style="mix-blend-mode: multiply;" class="link"><path stroke-width="1" stroke="#cccccc" d="M527.5,544.74358974359C608.75,544.74358974359,608.75,517.6907011725875,690,517.6907011725875"/></g><g style="mix-blend-mode: multiply;" class="link"><path stroke-width="1" stroke="#cccccc" d="M527.5,545.0854700854703C608.75,545.0854700854703,608.75,543.0325815144679,690,543.0325815144679"/></g><g style="mix-blend-mode: multiply;" class="link"><path stroke-width="2.3931623931623935" stroke="#cccccc" d="M527.5,546.4529914529917C608.75,546.4529914529917,608.75,569.4001029717629,690,569.4001029717629"/></g><g style="mix-blend-mode: multiply;" class="link"><path stroke-width="3.076923076923077" stroke="#cccccc" d="M355,458.044838733609C436.25,458.044838733609,436.25,546.1111111111113,517.5,546.1111111111113"/></g><g style="mix-blend-mode: multiply;" class="link"><path stroke-width="93.33333333333334" stroke="#cccccc" d="M355,315.82261651138685C436.25,315.82261651138685,436.25,353.8888888888889,517.5,353.8888888888889"/></g><g style="mix-blend-mode: multiply;" class="link"><path stroke-width="94.01709401709402" stroke="#cccccc" d="M355,409.4978301866005C436.25,409.4978301866005,436.25,472.56410256410265,517.5,472.56410256410265"/></g><g style="mix-blend-mode: multiply;" class="link"><path stroke-width="27.350427350427353" stroke="#cccccc" d="M355,473.25851394728426C436.25,473.25851394728426,436.25,586.3247863247865,517.5,586.3247863247865"/></g><g style="mix-blend-mode: multiply;" class="link"><path stroke-width="17.77777777777778" stroke="#cccccc" d="M182.5,583.1406751814588C263.75,583.1406751814588,263.75,478.0448387336091,345,478.0448387336091"/></g></g></svg>