<svg aria-roledescription="sankey" role="graphics-document document" viewBox="0 -12.7079439163208 700 314.2476806640625" style="max-width: 700px; background-color: white;" xmlns:xlink="http://www.w3.org/1999/xlink" xmlns="http://www.w3.org/2000/svg" width="100%" id="my-svg"><style>#my-svg{font-family:"trebuchet ms",verdana,arial,sans-serif;font-size:16px;fill:#333;}#my-svg .error-icon{fill:#552222;}#my-svg .error-text{fill:#552222;stroke:#552222;}#my-svg .edge-thickness-normal{stroke-width:1px;}#my-svg .edge-thickness-thick{stroke-width:3.5px;}#my-svg .edge-pattern-solid{stroke-dasharray:0;}#my-svg .edge-thickness-invisible{stroke-width:0;fill:none;}#my-svg .edge-pattern-dashed{stroke-dasharray:3;}#my-svg .edge-pattern-dotted{stroke-dasharray:2;}#my-svg .marker{fill:#333333;stroke:#333333;}#my-svg .marker.cross{stroke:#333333;}#my-svg svg{font-family:"trebuchet ms",verdana,arial,sans-serif;font-size:16px;}#my-svg p{margin:0;}#my-svg :root{--mermaid-font-family:"trebuchet ms",verdana,arial,sans-serif;}</style><g/><g class="nodes"><g y="0" x="0" transform="translate(0,0)" id="node-1" class="node"><rect fill="#4e79a7" width="10" height="0.5841121495327144"/></g><g y="29.847417536463865" x="138" transform="translate(138,29.847417536463865)" id="node-2" class="node"><rect fill="#f28e2c" width="10" height="85.86448598130846"/></g><g y="25.584112149532714" x="0" transform="translate(0,25.584112149532714)" id="node-3" class="node"><rect fill="#e15759" width="10" height="1.1682242990654146"/></g><g y="51.75233644859813" x="0" transform="translate(0,51.75233644859813)" id="node-4" class="node"><rect fill="#76b7b2" width="10" height="4.672897196261687"/></g><g y="81.42523364485982" x="0" transform="translate(0,81.42523364485982)" id="node-5" class="node"><rect fill="#59a14f" width="10" height="79.43925233644862"/></g><g y="32.98746114759973" x="414" transform="translate(414,32.98746114759973)" id="node-6" class="node"><rect fill="#edc949" width="10" height="58.41121495327104"/></g><g y="0" x="552" transform="translate(552,0)" id="node-7" class="node"><rect fill="#af7aa1" width="10" height="0.5841121495327002"/></g><g y="25.5841121495327" x="552" transform="translate(552,25.5841121495327)" id="node-8" class="node"><rect fill="#ff9da7" width="10" height="7.009345794392509"/></g><g y="57.59345794392521" x="552" transform="translate(552,57.59345794392521)" id="node-9" class="node"><rect fill="#9c755f" width="10" height="50.817757009345804"/></g><g y="44.896551387638745" x="276" transform="translate(276,44.896551387638745)" id="node-10" class="node"><rect fill="#bab0ab" width="10" height="115.65420560747668"/></g><g y="129.85665400853003" x="414" transform="translate(414,129.85665400853003)" id="node-11" class="node"><rect fill="#4e79a7" width="10" height="66.58878504672893"/></g><g y="133.411214953271" x="552" transform="translate(552,133.411214953271)" id="node-12" class="node"><rect fill="#f28e2c" width="10" height="54.906542056074784"/></g><g y="213.3177570093458" x="552" transform="translate(552,213.3177570093458)" id="node-13" class="node"><rect fill="#e15759" width="10" height="2.3364485981308007"/></g><g y="240.6542056074766" x="552" transform="translate(552,240.6542056074766)" id="node-14" class="node"><rect fill="#76b7b2" width="10" height="0.5841121495327002"/></g><g y="266.2383177570093" x="552" transform="translate(552,266.2383177570093)" id="node-15" class="node"><rect fill="#59a14f" width="10" height="5.8411214953271156"/></g><g y="297.07943925233644" x="552" transform="translate(552,297.07943925233644)" id="node-16" class="node"><rect fill="#edc949" width="10" height="2.9205607476635578"/></g><g y="118.90798412327491" x="690" transform="translate(690,118.90798412327491)" id="node-17" class="node"><rect fill="#af7aa1" width="10" height="27.45327102803735"/></g><g y="171.36125515131232" x="690" transform="translate(690,171.36125515131232)" id="node-18" class="node"><rect fill="#ff9da7" width="10" height="27.453271028037364"/></g><g y="140.71190351777233" x="138" transform="translate(138,140.71190351777233)" id="node-19" class="node"><rect fill="#9c755f" width="10" height="0.5841121495327002"/></g><g y="185.86448598130843" x="0" transform="translate(0,185.86448598130843)" id="node-20" class="node"><rect fill="#bab0ab" width="10" height="38.55140186915892"/></g><g y="173.04904613924475" x="138" transform="translate(138,173.04904613924475)" id="node-21" class="node"><rect fill="#4e79a7" width="10" height="29.20560747663552"/></g><g y="227.25465361588027" x="138" transform="translate(138,227.25465361588027)" id="node-22" class="node"><rect fill="#f28e2c" width="10" height="9.345794392523374"/></g></g><g font-size="14" font-family="sans-serif" class="node-labels"><text text-anchor="start" dy="0em" y="0.2920560747663572" x="16">Condensation
5</text><text text-anchor="start" dy="0em" y="72.7796605271181" x="154">SMB input
735</text><text text-anchor="start" dy="0em" y="26.16822429906542" x="16">Deposition
10</text><text text-anchor="start" dy="0em" y="54.08878504672897" x="16">Rainfall
40</text><text text-anchor="start" dy="0em" y="121.14485981308412" x="16">Snowfall
680</text><text text-anchor="end" dy="0em" y="62.19306862423525" x="408">SMB output
500</text><text text-anchor="end" dy="0em" y="0.2920560747663501" x="546">Evap
5</text><text text-anchor="end" dy="0em" y="29.088785046728955" x="546">Sublimation
60</text><text text-anchor="end" dy="0em" y="83.00233644859811" x="546">Runoff
435</text><text text-anchor="start" dy="0em" y="102.72365419137708" x="292">Gross
990</text><text text-anchor="end" dy="0em" y="163.1510465318945" x="408">Dynamics
570</text><text text-anchor="end" dy="0em" y="160.8644859813084" x="546">Discharge
470</text><text text-anchor="end" dy="0em" y="214.4859813084112" x="546">Grounded basal loss
20</text><text text-anchor="end" dy="0em" y="240.94626168224295" x="546">Grounding line retreat
5</text><text text-anchor="end" dy="0em" y="269.1588785046729" x="546">Frontal retreat
50</text><text text-anchor="end" dy="0em" y="298.5397196261682" x="546">Sub shelf melting
25</text><text text-anchor="end" dy="0em" y="132.63461963729358" x="684">Calving
235</text><text text-anchor="end" dy="0em" y="185.087890665331" x="684">Frontal Melt
235</text><text text-anchor="start" dy="0em" y="141.00395959253868" x="154">Sub-shelf freeze-on
5</text><text text-anchor="start" dy="0em" y="205.1401869158879" x="16">Net loss
330</text><text text-anchor="start" dy="0em" y="187.6518498775625" x="154">Grounded
250</text><text text-anchor="start" dy="0em" y="231.92755081214196" x="154">Floating
80</text></g><g stroke-opacity="0.5" fill="none" class="links"><g style="mix-blend-mode: multiply;" class="link"><path stroke-width="1" stroke="#cccccc" d="M10,0.29205607476635514C74,0.29205607476635514,74,30.13947361123022,138,30.13947361123022"/></g><g style="mix-blend-mode: multiply;" class="link"><path stroke-width="1.1682242990654206" stroke="#cccccc" d="M10,26.168224299065425C74,26.168224299065425,74,31.015641835529287,138,31.015641835529287"/></g><g style="mix-blend-mode: multiply;" class="link"><path stroke-width="4.672897196261682" stroke="#cccccc" d="M10,54.08878504672897C74,54.08878504672897,74,33.93620258319284,138,33.93620258319284"/></g><g style="mix-blend-mode: multiply;" class="link"><path stroke-width="79.4392523364486" stroke="#cccccc" d="M10,121.14485981308411C74,121.14485981308411,74,75.99227734954798,138,75.99227734954798"/></g><g style="mix-blend-mode: multiply;" class="link"><path stroke-width="1" stroke="#cccccc" d="M424,33.27951722236609C488,33.27951722236609,488,0.29205607476635514,552,0.29205607476635514"/></g><g style="mix-blend-mode: multiply;" class="link"><path stroke-width="7.009345794392523" stroke="#cccccc" d="M424,37.076246194328704C488,37.076246194328704,488,29.08878504672896,552,29.08878504672896"/></g><g style="mix-blend-mode: multiply;" class="link"><path stroke-width="50.8177570093458" stroke="#cccccc" d="M424,65.98979759619786C488,65.98979759619786,488,83.0023364485981,552,83.0023364485981"/></g><g style="mix-blend-mode: multiply;" class="link"><path stroke-width="85.8644859813084" stroke="#cccccc" d="M148,72.77966052711807C212,72.77966052711807,212,87.82879437829294,276,87.82879437829294"/></g><g style="mix-blend-mode: multiply;" class="link"><path stroke-width="58.41121495327103" stroke="#cccccc" d="M286,74.10215886427426C350,74.10215886427426,350,62.193068624235245,414,62.193068624235245"/></g><g style="mix-blend-mode: multiply;" class="link"><path stroke-width="57.242990654205606" stroke="#cccccc" d="M286,131.92926166801257C350,131.92926166801257,350,158.47814933563282,414,158.47814933563282"/></g><g style="mix-blend-mode: multiply;" class="link"><path stroke-width="54.90654205607476" stroke="#cccccc" d="M424,157.30992503656742C488,157.30992503656742,488,160.8644859813084,552,160.8644859813084"/></g><g style="mix-blend-mode: multiply;" class="link"><path stroke-width="2.336448598130841" stroke="#cccccc" d="M424,185.9314203636702C488,185.9314203636702,488,214.48598130841123,552,214.48598130841123"/></g><g style="mix-blend-mode: multiply;" class="link"><path stroke-width="1" stroke="#cccccc" d="M424,187.39170073750196C488,187.39170073750196,488,240.94626168224295,552,240.94626168224295"/></g><g style="mix-blend-mode: multiply;" class="link"><path stroke-width="5.841121495327103" stroke="#cccccc" d="M424,190.60431755993187C488,190.60431755993187,488,269.1588785046729,552,269.1588785046729"/></g><g style="mix-blend-mode: multiply;" class="link"><path stroke-width="2.9205607476635516" stroke="#cccccc" d="M424,194.9851586814272C488,194.9851586814272,488,298.5397196261682,552,298.5397196261682"/></g><g style="mix-blend-mode: multiply;" class="link"><path stroke-width="27.45327102803738" stroke="#cccccc" d="M562,147.1378504672897C626,147.1378504672897,626,132.6346196372936,690,132.6346196372936"/></g><g style="mix-blend-mode: multiply;" class="link"><path stroke-width="27.45327102803738" stroke="#cccccc" d="M562,174.5911214953271C626,174.5911214953271,626,185.087890665331,690,185.087890665331"/></g><g style="mix-blend-mode: multiply;" class="link"><path stroke-width="1" stroke="#cccccc" d="M148,141.00395959253868C212,141.00395959253868,212,131.0530934437135,276,131.0530934437135"/></g><g style="mix-blend-mode: multiply;" class="link"><path stroke-width="29.205607476635514" stroke="#cccccc" d="M10,200.4672897196262C74,200.4672897196262,74,187.6518498775625,138,187.6518498775625"/></g><g style="mix-blend-mode: multiply;" class="link"><path stroke-width="9.345794392523365" stroke="#cccccc" d="M10,219.74299065420564C74,219.74299065420564,74,231.92755081214196,138,231.92755081214196"/></g><g style="mix-blend-mode: multiply;" class="link"><path stroke-width="29.205607476635514" stroke="#cccccc" d="M148,187.6518498775625C212,187.6518498775625,212,145.9479532567976,276,145.9479532567976"/></g><g style="mix-blend-mode: multiply;" class="link"><path stroke-width="9.345794392523365" stroke="#cccccc" d="M148,231.92755081214196C281,231.92755081214196,281,191.77254185899733,414,191.77254185899733"/></g></g></svg>